<?xml version="1.0" encoding="utf-8"?>
<!-- Generator: Adobe Illustrator 27.0.1, SVG Export Plug-In . SVG Version: 6.00 Build 0)  -->
<svg version="1.1" id="Layer_1" xmlns="http://www.w3.org/2000/svg" xmlns:xlink="http://www.w3.org/1999/xlink" x="0px" y="0px"
	 viewBox="0 0 1585.4 1417" style="enable-background:new 0 0 1585.4 1417;" xml:space="preserve">
<style type="text/css">
	.st0{opacity:0.4;fill:#241033;enable-background:new    ;}
	.st1{fill:#A8A8A8;}
	.st2{fill:#919191;}
	.st3{fill:#606060;}
	.st4{fill:#F4F4F4;}
	.st5{fill:#222222;}
	.st6{fill:url(#SVGID_1_);}
	.st7{fill:#797979;}
	.st8{clip-path:url(#SVGID_00000168808304222545250660000009027472990776371586_);}
	.st9{fill:#424242;}
	.st10{fill:#D5D5D5;}
	.st11{fill:#C8D5DB;}
	.st12{fill:#1D1D1B;}
	.st13{fill:url(#SVGID_00000126282100764586637990000003993302586784617616_);}
	.st14{opacity:0.18;fill:#FFFFFF;enable-background:new    ;}
	.st15{opacity:0.38;fill:#575756;enable-background:new    ;}
	.st16{fill:#6EA8E3;}
	.st17{fill:#FFFFFF;}
	.st18{fill:#2E3192;}
	.st19{fill:#1A1A1A;}
	.st20{fill:#36A9E1;}
	.st21{fill:#176799;}
	.st22{fill:#87C3E1;}
	.st23{fill:#FBE35D;}
	.st24{fill:#FB931E;}
	.st25{fill:#FBF2C1;}
	.st26{opacity:0.25;fill:#241033;enable-background:new    ;}
	.st27{fill:#0B4FE8;}
	.st28{fill:#3ACAFF;}
	.st29{fill:#7DDCFF;}
	.st30{fill:#ED4A08;}
	.st31{fill:#F0B71E;}
	.st32{fill:#F0CF76;}
	.st33{fill:#5A1591;}
	.st34{fill:#7B16C9;}
	.st35{fill:#9B60C9;}
	.st36{fill:#67912F;}
	.st37{fill:#8CC63F;}
</style>
<g>
	<g id="OBJECTS">
		<g>
			<polygon class="st0" points="466.5,1117.7 906.6,1371.8 1493.4,1033 1053.3,778.9 			"/>
			<g>
				<path class="st1" d="M1493.4,865.9V881c0,10.3-5.5,19.8-14.4,25l-553.1,319.3c-5.9,3.5-12.6,5.2-19.3,5.2s-13.3-1.7-19.3-5.2
					L482.7,991.8c-10-5.8-16.2-16.5-16.2-28.1v-13.1l440.1,254.1L1493.4,865.9L1493.4,865.9z"/>
				<path class="st2" d="M906.6,1204.7v25.8c-6.7,0-13.3-1.7-19.3-5.2L482.7,991.8c-10-5.8-16.2-16.5-16.2-28.1v-13.1L906.6,1204.7
					L906.6,1204.7z"/>
				<path class="st3" d="M1000.4,122.8L471.3,428.3c-8.9,5.2-14.4,14.7-14.4,25v480.3c0,7,3.7,13.4,9.6,17l0,0l13.5-7.8L1043.7,606
					V147.8C1043.7,125.6,1019.6,111.7,1000.4,122.8L1000.4,122.8z"/>
				<polygon class="st4" points="466.5,950.6 906.6,1204.7 1493.4,865.9 1053.3,611.8 				"/>
				<path class="st5" d="M466.5,459v491.5l586.8-338.8V153.6c0-22.2-24.1-36.1-43.3-25L480.9,434C472,439.2,466.5,448.7,466.5,459
					L466.5,459z"/>
				
					<linearGradient id="SVGID_1_" gradientUnits="userSpaceOnUse" x1="573.46" y1="1309.8049" x2="573.46" y2="786.665" gradientTransform="matrix(1 0 0 -1 186.44 1497.28)">
					<stop  offset="0" style="stop-color:#2DB9E7"/>
					<stop  offset="1" style="stop-color:#3D46A2"/>
				</linearGradient>
				<polygon class="st6" points="509.5,467.2 1010.3,178.1 1010.3,586.9 509.5,876 				"/>
				<g>
					<path class="st7" d="M1109.5,680.7l144,94.1c2.1,1.4,2.2,2.7,0.4,3.8l-446.7,271c-4.5,2.7-29.7,5.7-33,3.9l-169.1-96
						c-2.2-1.2-2-2.7,0.7-4.2l481.7-275.2C1090,676.5,1106.1,678.5,1109.5,680.7L1109.5,680.7z"/>
					<g>
						<defs>
							<path id="SVGID_00000168076075722209759560000010599797042795387832_" d="M1102.5,679.8l145.5,94.6c2.1,1.4,2.2,2.7,0.4,3.8
								l-451.5,272.6c-4.6,2.8-30.1,5.8-33.4,3.9l-171.5-96.6c-2.2-1.3-2-2.7,0.7-4.2L1080.2,677
								C1082.8,675.5,1099,677.6,1102.5,679.8L1102.5,679.8z"/>
						</defs>
						<clipPath id="SVGID_00000036933373299202291710000009096869700679670147_">
							<use xlink:href="#SVGID_00000168076075722209759560000010599797042795387832_"  style="overflow:visible;"/>
						</clipPath>
						<g style="clip-path:url(#SVGID_00000036933373299202291710000009096869700679670147_);">
							<path class="st1" d="M1102.5,679.8l145.5,94.6c2.1,1.4,2.2,2.7,0.4,3.8l-451.5,272.6c-4.6,2.8-30.1,5.8-33.4,3.9l-171.5-96.6
								c-2.2-1.3-2-2.7,0.7-4.2L1080.2,677C1082.8,675.5,1099,677.6,1102.5,679.8L1102.5,679.8z"/>
							<path class="st9" d="M1102.5,679.8l145.5,94.6c2.1,1.4,2.2,2.7,0.4,3.8l-451.5,272.6c-4.6,2.8-30.1,5.8-33.4,3.9l-171.5-96.6
								c-2.2-1.3-2-2.7,0.7-4.2L1080.2,677C1082.8,675.5,1099,677.6,1102.5,679.8L1102.5,679.8z"/>
							<path class="st2" d="M1156.8,759.5l35.3-21.4l-4-2.6l-35.4,21.3l-25.1-16.7l35.7-20.6l-4.2-2.7l-35.8,20.5l-25.3-16.9
								l35.5-20.3l-4.4-2.9l-35.6,20.2l-38.9-25.9l-4,2.3l39,25.9l-33.7,19.1l-40-25.3l-4.2,2.4l40.1,25.2l-31.1,17.6l-40.2-25.1
								l-4.5,2.6l40.4,25L984,779.5l-40.5-24.9l-4.8,2.7l40.6,24.8l-34.1,19.3l-40.7-24.7l-5.2,2.9l40.8,24.6l-35.7,20.2L863.6,800
								l-5.6,3.2l41.1,24.4l-37.5,21.2l-41.1-24.3l-6,3.4l41.3,24.2l-39.4,22.3l-41.3-24.2l-6.4,3.7l41.5,24.1l-41.5,23.5l-41.5-24
								l-6.9,3.9l41.7,23.9l-43.7,24.8l-41.7-23.9l-7.5,4.3l41.8,23.8l-46.1,26.1L623,936.6l-8.1,4.6l42,23.6l-26.4,15l6.5,3.7
								l26.3-15l29.1,16.4l-26.3,15.1l6.2,3.5l26.2-15.1l35.9,20.2l-25.7,15.4l5.8,3.3l25.6-15.5l24.2,13.6l-26,15.3l5.4,3.1
								l26-15.3L803,1047l7-4.2l-33.1-18.8l45.2-26.7l32.6,18.5l6.5-3.9l-32.4-18.5l42.7-25.2l31.8,18.3l6-3.6l-31.6-18.3l40.5-23.9
								l31.1,18.1l5.5-3.3l-30.9-18.1l38.4-22.7l30.4,17.9l5.1-3.1l-30.2-17.9l36.5-21.5l29.8,17.7l4.8-2.9l-29.6-17.7l34.7-20.5
								l29.1,17.5l4.4-2.7l-28.9-17.6l33.1-19.5l28.5,17.4l4.1-2.5l-28.3-17.4l31.5-18.6l27.9,17.3l3.8-2.3l-27.7-17.3l30.1-17.8
								l27.2,17.1h0.2l3.5-2.1l-27.2-17.2l30.6-18l26.1,17.3l3.4-2.1l-26-17.4l36.2-21.4l-3.7-2.4l-36.3,21.3l-3.5,2.1l-30.8,18
								l-28.7-18.1l31-18.8L1156.8,759.5L1156.8,759.5z M751.8,957.4l34.6,19.7l-44.7,26.9l-35.5-20.2L751.8,957.4L751.8,957.4z
								 M1080.2,800.4l-31.4,18.8l-28.2-17.3l32.1-18.5L1080.2,800.4L1080.2,800.4z M1056.9,781l30.6-17.7l26.6,16.7l-30,18
								L1056.9,781L1056.9,781z M1044.5,821.9l-32.9,19.8L982.5,824l33.6-19.4L1044.5,821.9L1044.5,821.9z M1007,844.5l-34.5,20.7
								l-30.1-18l35.2-20.4L1007,844.5L1007,844.5z M967.5,868.2L931.2,890l-31.1-18.4l37-21.4L967.5,868.2L967.5,868.2z
								 M925.9,893.2l-38.1,22.9l-32.1-18.8l38.9-22.5L925.9,893.2L925.9,893.2z M881.9,919.6l-40.2,24.1l-33.2-19.2l41-23.7
								L881.9,919.6L881.9,919.6z M835.5,947.5L793.2,973l-34.3-19.7l43.2-25L835.5,947.5L835.5,947.5z M717.1,937.8l28.8,16.3
								l-45.8,26.3L671.1,964L717.1,937.8L717.1,937.8z M767.9,908.8l28.5,16.3L753,950l-28.6-16.4L767.9,908.8z M816,881.4
								l28.1,16.3l-41.1,23.6l-28.3-16.4L816,881.4z M861.4,855.4l27.8,16.3l-39.1,22.4l-28-16.4L861.4,855.4L861.4,855.4z
								 M904.6,830.8l27.5,16.3l-37.2,21.3l-27.7-16.4L904.6,830.8L904.6,830.8z M945.5,807.4l27.2,16.4l-35.4,20.3l-27.4-16.4
								L945.5,807.4L945.5,807.4z M984.4,785.2l26.9,16.4L977.6,821l-27.1-16.4L984.4,785.2L984.4,785.2z M1021.5,764.1l26.6,16.4
								l-32.2,18.5l-26.8-16.4L1021.5,764.1L1021.5,764.1z M1056.8,743.9l26.2,16.5l-30.8,17.7l-26.4-16.5L1056.8,743.9
								L1056.8,743.9z M1119.7,739.4l-32.7,18.8l-26.1-16.5l33.5-19.1L1119.7,739.4L1119.7,739.4z M1149.2,758.9l-31.2,18.8
								l-26.5-16.7l32.5-18.8L1149.2,758.9z M1117,818.4l-28.4-17.7l29.8-18.1l28.7,18L1117,818.4L1117,818.4z M1081.4,839.3
								l-28-17.2l31.2-18.9l28.4,17.6L1081.4,839.3z M1043.9,861.3l-27.6-16.8l32.8-19.8l28.1,17.1L1043.9,861.3L1043.9,861.3z
								 M1004.5,884.4l-27.2-16.3l34.4-20.8l27.7,16.7L1004.5,884.4L1004.5,884.4z M962.9,908.8l-26.7-15.8l36.1-21.8l27.2,16.2
								L962.9,908.8L962.9,908.8z M919.1,934.5l-26.2-15.3l38-23l26.7,15.7L919.1,934.5L919.1,934.5z M872.7,961.7l-25.6-14.8
								l40-24.2l26.2,15.2L872.7,961.7L872.7,961.7z M823.6,990.4l-24.9-14.3l42.2-25.5l25.6,14.7L823.6,990.4L823.6,990.4z
								 M771.6,1021l-24.2-13.7l44.6-27l24.9,14.2L771.6,1021L771.6,1021z"/>
							<path class="st10" d="M1160.5,759.8l35.1-21.3l-4-2.6l-35.2,21.2l-24.9-16.7l35.5-20.6l-4.2-2.7l-35.6,20.5l-25.1-16.8
								l35.3-20.2l-4.4-2.9l-35.3,20.1l-42.7-26.5l-4,2.3l42.8,26.4l-33.5,19l-42.5-26.6l-4.2,2.4l42.7,26.5l-30.9,17.6l-42.5-26.6
								l-4.5,2.5l42.6,26.6l-32.3,18.4l-43.6-26l-4.8,2.7l43.7,26l-33.8,19.2l-43.5-26.1l-5.1,2.9l43.7,26l-35.5,20.2l-44.6-25.5
								l-5.5,3.2l44.7,25.4l-37.2,21.2l-44.5-25.6l-5.9,3.4l44.6,25.5l-39.1,22.2l-44.6-25.6l-6.4,3.6l44.8,25.5l-41.2,23.4
								l-44.3-25.8l-6.9,3.9l44.5,25.7l-43.4,24.7l-44.2-25.9l-7.5,4.2l44.3,25.8l-45.8,26l-44.7-25.6l-8.1,4.6l44.9,25.5
								l-28.7,18.1l6.5,3.7l28.6-18.1l28.9,16.3l-28.5,18.1l6.1,3.5l28.4-18.2l35.6,20.1l-29.1,17.7l5.8,3.3l29-17.8l24,13.6
								l-29.5,17.4l5.4,3.1l29.4-17.5l33.1,18.7l7-4.2l-32.9-18.8l44.9-26.5l32.4,18.4l6.4-3.9l-32.1-18.5l42.4-25.1l31.6,18.2
								l5.9-3.6L883,964.1l40.2-23.8l30.9,18l5.5-3.3l-30.7-18l38.2-22.6l30.2,17.8l5.1-3.1l-30-17.8l36.3-21.4l29.6,17.6l4.7-2.9
								l-29.4-17.7l34.5-20.4l28.9,17.5l4.4-2.7l-28.8-17.5l32.9-19.4l28.3,17.3l4.1-2.5l-28.2-17.4l31.3-18.5l27.7,17.2l3.8-2.3
								l-27.6-17.2l29.9-17.7l27.1,17h0.2l3.5-2.1l-27-17.1l30.4-18l26,17.3l3.4-2.1l-25.9-17.3l36-21.3l-3.7-2.4l-36.1,21.2
								l-3.5,2.1l-30.6,18l-28.5-18.1l30.8-18.7L1160.5,759.8L1160.5,759.8z M758.1,957l34.4,19.6l-44.4,26.8l-35.3-20.1L758.1,957
								L758.1,957z M1084.3,800.6l-31.2,18.8l-28-17.3l31.9-18.5L1084.3,800.6z M1061.2,781.2l30.5-17.7l26.5,16.7l-29.8,18
								L1061.2,781.2L1061.2,781.2z M1048.8,822l-32.7,19.7l-28.9-17.6l33.4-19.4L1048.8,822L1048.8,822z M1011.5,844.5l-34.3,20.7
								l-29.9-17.9l35-20.3L1011.5,844.5L1011.5,844.5z M972.3,868.2l-36,21.7l-30.8-18.3l36.8-21.3L972.3,868.2L972.3,868.2z
								 M930.9,893.1l-37.9,22.8l-31.9-18.7l38.7-22.4L930.9,893.1L930.9,893.1z M887.3,919.4l-39.9,24.1l-33-19.2l40.7-23.6
								L887.3,919.4L887.3,919.4z M841.2,947.2l-42,25.4L765.1,953l42.9-24.9L841.2,947.2z M723.7,937.4l28.5,16.3l-45.5,26.2
								l-28.7-16.4L723.7,937.4L723.7,937.4z M774.1,908.6l28.2,16.3l-43.1,24.8l-28.4-16.3L774.1,908.6L774.1,908.6z M821.8,881.3
								l27.9,16.3l-40.8,23.5l-28.1-16.3L821.8,881.3L821.8,881.3z M867,855.4l27.6,16.3L855.8,894L828,877.7L867,855.4L867,855.4z
								 M909.8,830.9l27.3,16.3l-36.9,21.3l-27.5-16.3L909.8,830.9L909.8,830.9z M950.5,807.6l27,16.3l-35.2,20.2l-27.2-16.3
								L950.5,807.6L950.5,807.6z M989.2,785.5l26.7,16.3l-33.5,19.3l-26.9-16.4L989.2,785.5L989.2,785.5z M1026,764.4l26.4,16.4
								l-32,18.4l-26.6-16.4L1026,764.4L1026,764.4z M1061.1,744.3l26.1,16.4l-30.6,17.6l-26.3-16.4L1061.1,744.3L1061.1,744.3z
								 M1123.6,739.7l-32.5,18.7l-26-16.5l33.3-19L1123.6,739.7z M1152.9,759.2l-31,18.7l-26.3-16.7l32.3-18.7L1152.9,759.2
								L1152.9,759.2z M1120.9,818.5l-28.2-17.6l29.7-18l28.6,18L1120.9,818.5L1120.9,818.5z M1085.5,839.4l-27.8-17.2l31.1-18.8
								l28.2,17.5L1085.5,839.4L1085.5,839.4z M1048.3,861.3l-27.5-16.7l32.6-19.8l27.9,17.1L1048.3,861.3L1048.3,861.3z
								 M1009.1,884.3l-27-16.2l34.2-20.7l27.5,16.6L1009.1,884.3z M967.8,908.6l-26.5-15.8l35.9-21.8l27,16.1L967.8,908.6z
								 M924.2,934.2l-26-15.3L936,896l26.6,15.7L924.2,934.2L924.2,934.2z M878.2,961.3l-25.4-14.8l39.7-24.1l26,15.2L878.2,961.3z
								 M829.4,990l-24.8-14.2l41.9-25.4l25.4,14.6L829.4,990L829.4,990z M777.7,1020.3l-24-13.7l44.3-26.9l24.8,14.1L777.7,1020.3z
								"/>
						</g>
					</g>
				</g>
				<path class="st11" d="M991.2,1015.7l70.2,40.5c2.6,1.5,5.8,1.5,8.4,0l157.2-90.8c5.6-3.2,5.6-11.3,0-14.5l-70.2-40.5
					c-2.6-1.5-5.8-1.5-8.4,0l-157.2,90.8C985.6,1004.4,985.6,1012.5,991.2,1015.7z"/>
				<g>
					<polygon class="st9" points="516,987.5 516,1004.3 545,1021 545,1004.3 					"/>
					<polygon class="st12" points="516,1004.3 530.5,995.9 516,987.5 					"/>
				</g>
				<g>
					<polygon class="st9" points="563.9,1014.7 563.9,1031.5 592.8,1048.2 592.8,1031.5 					"/>
					<polygon class="st12" points="563.9,1031.5 578.3,1023.1 563.9,1014.7 					"/>
				</g>
				<g>
					<polygon class="st9" points="611.7,1041.9 611.7,1058.7 640.7,1075.4 640.7,1058.7 					"/>
					<polygon class="st12" points="611.7,1058.7 626.2,1050.3 611.7,1041.9 					"/>
				</g>
				
					<linearGradient id="SVGID_00000019665509413210885030000002625529444440211634_" gradientUnits="userSpaceOnUse" x1="566.295" y1="1199.09" x2="580.635" y2="1199.09" gradientTransform="matrix(1 0 0 -1 186.44 1497.28)">
					<stop  offset="0" style="stop-color:#2DB9E7"/>
					<stop  offset="1" style="stop-color:#3D46A2"/>
				</linearGradient>
				<path style="fill:url(#SVGID_00000019665509413210885030000002625529444440211634_);" d="M767.1,298.2c0,6.4-3.2,11.7-7.2,11.7
					s-7.2-5.2-7.2-11.7s3.2-11.7,7.2-11.7S767.1,291.8,767.1,298.2z"/>
				<polygon class="st14" points="509.5,876 1010.3,178.1 509.5,467.2 				"/>
			</g>
			<path class="st15" d="M1164.1,837.5c0.1-1.2,0.2-2.5,0.2-3.7c0-52.1-69.5-94.4-155.3-94.4s-155.3,42.3-155.3,94.4v56.3h0.2
				c0.4,10.7,3.7,21,9.5,30.6l-10,5.6c-4.2-1.3-8.6-1.4-12.7,0c-2.4,0.8-4.5,2.2-6.4,3.9l-146.4,87.9c-0.7,0.4-1.4,0.8-2.1,1.3
				l-0.4,0.3l0,0.1c-8.6,6.6-12.1,19.9-7.6,33c5.3,15.6,19.9,24.7,32.5,20.4c2.5-0.8,4.6-2.2,6.5-3.9L860,982.8
				c6.5-2.2,11.1-7.6,13.4-14.4l25-14c28.1,17.4,67.2,28.2,110.5,28.2c84.6,0,153.3-41.2,155.1-92.4h0V890c0-0.6,0.2-1.2,0.2-1.9
				s-0.1-1.2-0.2-1.9L1164.1,837.5L1164.1,837.5z M1009,890.1c-38.1,0-70.8-14-85-34c12.9-18.2,41.1-31.5,74.9-33.8h20.2
				c33.8,2.2,62,15.5,74.9,33.8C1079.8,876.1,1047.1,890.1,1009,890.1L1009,890.1z"/>
			<g>
				<path class="st16" d="M853.7,709.4v56.3h0.2c1.8,51.2,70.5,92.4,155.1,92.4s153.3-41.2,155.1-92.4h0v-0.2c0-0.6,0.2-1.2,0.2-1.9
					s-0.1-1.2-0.2-1.9v-52.4h-28.2c-7.9-6.8-17.3-12.8-27.8-18.2v-46.7H909.1v47c-10.2,5.2-19.3,11.2-27,17.8L853.7,709.4
					L853.7,709.4z M916.4,753.8c0-29,36.1-52.9,82.5-55.9h20.2c46.4,3.1,82.5,26.9,82.5,55.9c0,31.1-41.4,39.7-92.6,39.7
					S916.4,784.9,916.4,753.8L916.4,753.8z"/>
				<path class="st17" d="M853.7,709.4c0,52.1,69.5,94.4,155.3,94.4s155.3-42.3,155.3-94.4S1094.7,615,1009,615
					S853.7,657.3,853.7,709.4L853.7,709.4z M916.4,709.4c0-31.1,41.4-56.3,92.6-56.3s92.6,25.2,92.6,56.3s-41.4,56.3-92.6,56.3
					S916.4,740.5,916.4,709.4z"/>
				<path class="st18" d="M837.7,810.8L837.7,810.8l0.2-0.2c1.4-1.1,2.9-2.1,4.7-2.7c0.1,0,0.2,0,0.3-0.1l37.1-20.8
					c1.3-1,2.8-1.9,4.4-2.4c9.9-3.4,21.4,3.8,25.7,16.1c3.6,10.5,0.7,21.3-6.4,26.4v0l-0.1,0.1c-0.6,0.4-1.3,0.8-2,1.1l-39.8,22.3
					c-0.5,0.3-1,0.6-1.5,0.9l-0.6,0.3l0,0c-0.5,0.3-1,0.6-1.6,0.8c-9.9,3.4-21.4-3.8-25.7-16.1C828.9,826.3,831.4,816.1,837.7,810.8
					z"/>
				<path class="st19" d="M685.3,895.2L685.3,895.2l0.4-0.3c0.7-0.5,1.4-0.9,2.1-1.3l146.4-87.9c1.9-1.6,4-3,6.4-3.9
					c12.6-4.3,27.1,4.8,32.5,20.4c5.3,15.6-0.5,31.7-13.1,36l-143.4,86.4c-1.9,1.7-4,3.1-6.5,3.9c-12.6,4.3-27.1-4.8-32.5-20.4
					C673.2,915.2,676.7,901.8,685.3,895.2L685.3,895.2z"/>
			</g>
			<g>
				<polygon class="st20" points="1135,207.2 1135,58.2 1264,132.7 1263.9,281.6 				"/>
				<polygon class="st21" points="1264,132.7 1287.1,119.3 1287.1,268.2 1263.9,281.6 				"/>
				<polygon class="st22" points="1135,58.2 1157.5,45.1 1287.1,119.3 1264,132.7 				"/>
				<path class="st17" d="M1227.3,206c-15.4-20.9-25.2-28.9-25.2-28.9l0.3-7.8c3-1.6,5.5-4.6,7.1-8.7c2.1,0.9,4.3-1.8,4.9-6.3
					c0.7-4.8-0.5-9.7-2.7-11.1c0,0-0.1,0-0.1,0l0.3-13.2l-0.1,0c-0.1-1.3-0.3-2.7-0.8-4c-0.5-2.1-1.2-4.4-2.1-6.4
					c-0.7-1.6-1.5-3.1-2.6-4.4c-1.2-1.4-2.8-2.7-3.5-4.4c0.5-0.2,0.9-0.5,1.3-0.9c-1.7,0.1-5.5-1.7-7.5-2.6c0.6-0.7,0.8-1.8,1.2-2.7
					c-2,1.4-5.2,0.9-7.8,0.9c-2.5,0-4.9,0.2-7.1,1.1c-1.6,0.6-3.2,1.3-4.4,2.6c-0.3,0.4-0.7,1.1-1.1,1.8c-0.7,1-1.1,2.2-1.3,3.5l0,0
					l-1,12.4c-1.8-0.1-3.2,3.2-3,7.9c0.2,4.3,1.6,8.4,3.3,9.7c1,5.2,2.9,10.1,5.4,14.3l-0.5,7.4c0,0-9.3-1.7-23.7,2.9
					c-10.1,3.2-12.4,15.6-12.9,22.7c0.8,3.2,2.7,6.1,5,7.5l84.2,48.2c3,1.7,5.6,1,7-1.3C1240.2,237.9,1238.8,221.7,1227.3,206
					L1227.3,206z"/>
			</g>
			<g>
				<polygon class="st23" points="520.4,514.4 520.4,365.3 391.3,439.9 391.5,588.8 				"/>
				<polygon class="st24" points="391.3,439.9 368.2,426.5 368.2,575.4 391.5,588.8 				"/>
				<polygon class="st25" points="520.4,365.3 497.9,352.3 368.2,426.5 391.3,439.9 				"/>
				<path class="st17" d="M406.1,549.9l0.1-74.2c0-4,2.6-9,5.8-11l17.7-11.1v-7.4c0-4.1,2.6-9.1,5.9-11.2l36.8-23.5
					c3.5-2.2,6.3-0.6,6.3,3.6l0.1,7.6l19.2-12.1c3.6-2.3,6.5-0.6,6.6,3.7l0.9,78.3c0,4.4-2.9,9.6-6.5,11.7L412,554
					C408.7,555.9,406.1,554,406.1,549.9L406.1,549.9z M417.9,535.6l74.5-43.3l-0.6-62.2l-19.1,11.8l-6.3,3.9l-0.1-15.2L441.7,446
					l0,15l-6,3.7l-17.8,11V535.6L417.9,535.6z M485.5,445.5c0,2.1-1.4,4.7-3.2,5.8c-1.8,1.1-3.2,0.2-3.2-1.9c0-2.1,1.4-4.7,3.2-5.8
					S485.4,443.4,485.5,445.5L485.5,445.5z M472.9,472.5c0.1,12.8-8.3,28.1-18.6,34.2c-10.2,6-18.4,0.6-18.4-11.9
					c0-12.5,8.1-27.6,18.2-33.8C464.3,454.7,472.8,459.8,472.9,472.5L472.9,472.5z M466.6,476.3c0-8.5-5.7-11.9-12.5-7.7
					c-6.8,4.1-12.2,14.2-12.2,22.6c0,8.4,5.5,11.9,12.3,7.9C461.1,495,466.6,484.8,466.6,476.3L466.6,476.3z"/>
			</g>
			<polygon class="st26" points="1542.7,741.9 1472.8,701.5 1402.9,741.9 1472.8,782.3 			"/>
			<polygon class="st26" points="1402.9,678.7 1333,638.4 1263,678.7 1333,719.1 			"/>
			<polygon class="st26" points="1263,606.4 1193.1,566 1123.2,606.4 1193.1,646.8 			"/>
			<polygon class="st27" points="1472.8,752.9 1542.7,712.5 1542.7,631.8 1472.8,672.2 			"/>
			<polygon class="st28" points="1472.8,752.9 1402.9,712.5 1402.9,631.8 1472.8,672.2 			"/>
			<polygon class="st29" points="1542.7,631.8 1472.8,591.4 1402.9,631.8 1472.8,672.2 			"/>
			<polygon class="st30" points="1333,672.2 1402.9,631.8 1402.9,470.3 1333,510.7 			"/>
			<polygon class="st31" points="1333,672.2 1263,631.8 1263,470.3 1333,510.7 			"/>
			<polygon class="st32" points="1402.9,470.3 1333,430 1263,470.3 1333,510.7 			"/>
			<polygon class="st33" points="1193.1,591.4 1263,551.1 1263,308.9 1193.1,349.2 			"/>
			<polygon class="st34" points="1193.1,591.4 1123.2,551.1 1123.2,308.9 1193.1,349.2 			"/>
			<polygon class="st35" points="1263,308.9 1193.1,268.5 1123.2,308.9 1193.1,349.2 			"/>
			<g>
				<path class="st36" d="M262.2,872.1c-0.2-13.1-2-26.7-5.4-40.3l23.7-15.6l-11.3-26.2L258,763.9l-28.5,4.3
					c-7.6-11.9-16.2-22.8-25.7-32.2l0.9-37.9l-19-11.8l-18.5-11.5l-16.3,7.3l6.4,17.3l2.6-0.3l-2.1,7.1c-9.5-3.1-18.6-4-27-3
					l-18.2-32.7l-2,1.2l0.3-1.2l-14.5,7.3l0.7,2.2l-10.5,6.5l11,35.3c-5.2,6.3-9.5,14.2-12.5,23.4l-22.7-10.9l-16.3,7.3l14.6,11.3
					l-0.1,1L59,773.2l21.1,21.1c0.9,11.3,2.9,22.9,6,34.3l-14.9,12.5L80,862l8.8,20.9l19.9-0.8c6.1,10.4,13.1,20.1,20.8,29l0.2,29.4
					l12.7,10.7l-7,4.9l9.3,18.1l16.3-7.3l8.4-23.1c9,4.7,17.9,7.7,26.4,8.9l13.2,24.3l-2-0.2l2.7,1.4l4.3,8l8.3-1.5l6.4,3.3
					l16.3-7.3l-11.1-36.3c4.8-3.4,9.1-7.8,12.9-13l18.4,17.1l16.3-7.3l4.8-20.7l5-21.2L262.2,872.1L262.2,872.1z M211.8,865.5
					c-5.5,30.2-30.9,37.5-56,17.8c-24.2-18.9-40.2-56.9-36.6-86.3c3.8-30.4,27.3-41.7,53.3-23.7
					C199.6,792.1,217.5,834.2,211.8,865.5z"/>
				<path class="st37" d="M246,879.5c-0.2-13.1-2-26.7-5.4-40.3l23.7-15.6L253,797.4l-11.2-26.1l-28.5,4.3
					c-7.6-11.9-16.2-22.8-25.7-32.2l0.9-37.9l-19-11.8l-18.5-11.5l-9.3,31.4c-9.5-3.1-18.6-4-27-3l-18.2-32.7L83.1,686l-12.8,7.8
					l11,35.3c-5.2,6.3-9.5,14.2-12.5,23.4l-22.7-10.9l-1.8,19.7l-1.7,19.3l21.1,21.2c0.9,11.3,2.9,22.9,6,34.3l-14.9,12.5l8.8,20.9
					l8.8,20.9l19.9-0.8c6.1,10.4,13.1,20.1,20.8,29l0.2,29.4l15.4,13l15.8,13.3l8.4-23.1c9,4.7,17.9,7.7,26.4,8.9l18.2,33.4
					l15.2-2.7l15.7-2.8l-11.1-36.3c6.8-4.8,12.7-11.5,17.4-20.1l30.2,16.9l4.8-20.7l5-21.2L246,879.5L246,879.5z M139.5,890.7
					c-24.2-18.9-40.2-56.9-36.6-86.3c3.8-30.4,27.3-41.7,53.3-23.7c27.1,18.7,45.1,60.8,39.3,92.1
					C190,903.1,164.6,910.4,139.5,890.7L139.5,890.7z"/>
			</g>
		</g>
	</g>
</g>
</svg>
